# Blender v2.81 (sub 16) OBJ File: 'artag.blend'
# www.blender.org
mtllib artag.mtl
o Artag_tam_model_Artag_V0
v 20.155277 -102.677628 29.931986
v 20.155277 -27.432678 29.931986
v 19.890728 -102.677628 26.486158
v 19.890728 -27.432678 26.486158
v 20.155277 -102.677628 23.040335
v 20.155277 -27.432678 23.040335
v 20.942734 -102.677628 19.675276
v 20.942734 -27.432678 19.675276
v 22.234634 -102.677628 16.469858
v 22.234634 -27.432678 16.469858
v 24.000694 -102.677628 13.499214
v 24.000694 -27.432678 13.499214
v 26.199528 -102.677628 10.832973
v 26.199528 -27.432678 10.832973
v 28.779594 -102.677628 8.533628
v 28.779594 -27.432678 8.533628
v 31.680408 -102.677628 6.655079
v 31.680408 -27.432678 6.655079
v 34.833996 -102.677628 5.241350
v 34.833996 -27.432678 5.241350
v 38.166424 -102.677628 4.325583
v 38.166424 -27.432678 4.325583
v 41.599590 -102.677628 3.929241
v 41.599590 -27.432678 3.929241
v 45.053020 -102.677628 4.061615
v 45.053020 -27.432678 4.061615
v 48.445766 -102.677628 4.719601
v 48.445766 -27.432678 4.719601
v 51.698315 -102.677628 5.887775
v 51.698315 -27.432678 5.887775
v 54.734425 -102.677628 7.538759
v 54.734425 -27.432678 7.538759
v 57.482929 -102.677628 9.633852
v 57.482929 -27.432678 9.633852
v 59.879406 -102.677628 12.123953
v 59.879406 -27.432678 12.123953
v 61.867687 -102.677628 14.950687
v 61.867687 -27.432678 14.950687
v 63.401173 -102.677628 18.047808
v 63.401173 -27.432678 18.047808
v 64.443909 -102.677628 21.342710
v 64.443909 -27.432678 21.342710
v 64.971451 -102.677628 24.758177
v 64.971451 -27.432678 24.758177
v 64.971451 -102.677628 28.214144
v 64.971451 -27.432678 28.214144
v 64.443909 -102.677628 31.629606
v 64.443909 -27.432678 31.629606
v 63.401173 -102.677628 34.924515
v 63.401173 -27.432678 34.924515
v 61.867687 -102.677628 38.021637
v 61.867687 -27.432678 38.021637
v 59.879406 -102.677628 40.848373
v 59.879406 -27.432678 40.848373
v 57.482929 -102.677628 43.338463
v 57.482929 -27.432678 43.338463
v 54.734425 -102.677628 45.433563
v 54.734425 -27.432678 45.433563
v 51.698315 -102.677628 47.084549
v 51.698315 -27.432678 47.084549
v 48.445766 -102.677628 48.252716
v 48.445766 -27.432678 48.252716
v 45.053020 -102.677628 48.910706
v 45.053020 -27.432678 48.910706
v 41.599590 -102.677628 49.043083
v 41.599590 -27.432678 49.043083
v 38.166424 -102.677628 48.646744
v 38.166424 -27.432678 48.646744
v 34.833996 -102.677628 47.730972
v 34.833996 -27.432678 47.730972
v 31.680408 -102.677628 46.317238
v 31.680408 -27.432678 46.317238
v 28.779594 -102.677628 44.438690
v 28.779594 -27.432678 44.438690
v 26.199528 -102.677628 42.139343
v 26.199528 -27.432678 42.139343
v 24.000694 -102.677628 39.473106
v 24.000694 -27.432678 39.473106
v 22.234634 -102.677628 36.502464
v 22.234634 -27.432678 36.502464
v 20.942734 -102.677628 33.297043
v 20.942734 -27.432678 33.297043
v 20.155277 123.057205 23.040335
v 20.155277 47.812263 23.040335
v 19.890728 123.057205 26.486158
v 19.890728 47.812263 26.486158
v 20.155277 123.057205 29.931986
v 20.155277 47.812263 29.931986
v 20.942734 123.057205 33.297043
v 20.942734 47.812263 33.297043
v 22.234634 123.057205 36.502464
v 22.234634 47.812263 36.502464
v 24.000694 123.057205 39.473106
v 24.000694 47.812263 39.473106
v 26.199528 123.057205 42.139343
v 26.199528 47.812263 42.139343
v 28.779594 123.057205 44.438690
v 28.779594 47.812263 44.438690
v 31.680408 123.057205 46.317238
v 31.680408 47.812263 46.317238
v 34.833996 123.057205 47.730972
v 34.833996 47.812263 47.730972
v 38.166424 123.057205 48.646744
v 38.166424 47.812263 48.646744
v 41.599590 123.057205 49.043083
v 41.599590 47.812263 49.043083
v 45.053020 123.057205 48.910706
v 45.053020 47.812263 48.910706
v 48.445766 123.057205 48.252716
v 48.445766 47.812263 48.252716
v 51.698315 123.057205 47.084549
v 51.698315 47.812263 47.084549
v 54.734425 123.057205 45.433563
v 54.734425 47.812263 45.433563
v 57.482929 123.057205 43.338463
v 57.482929 47.812263 43.338463
v 59.879406 123.057205 40.848373
v 59.879406 47.812263 40.848373
v 61.867687 123.057205 38.021637
v 61.867687 47.812263 38.021637
v 63.401173 123.057205 34.924515
v 63.401173 47.812263 34.924515
v 64.443909 123.057205 31.629606
v 64.443909 47.812263 31.629606
v 64.971451 123.057205 28.214144
v 64.971451 47.812263 28.214144
v 64.971451 123.057205 24.758177
v 64.971451 47.812263 24.758177
v 64.443909 123.057205 21.342710
v 64.443909 47.812263 21.342710
v 63.401173 123.057205 18.047808
v 63.401173 47.812263 18.047808
v 61.867687 123.057205 14.950687
v 61.867687 47.812263 14.950687
v 59.879406 123.057205 12.123953
v 59.879406 47.812263 12.123953
v 57.482929 123.057205 9.633852
v 57.482929 47.812263 9.633852
v 54.734425 123.057205 7.538759
v 54.734425 47.812263 7.538759
v 51.698315 123.057205 5.887775
v 51.698315 47.812263 5.887775
v 48.445766 123.057205 4.719601
v 48.445766 47.812263 4.719601
v 45.053020 123.057205 4.061615
v 45.053020 47.812263 4.061615
v 41.599590 123.057205 3.929241
v 41.599590 47.812263 3.929241
v 38.166424 123.057205 4.325583
v 38.166424 47.812263 4.325583
v 34.833996 123.057205 5.241350
v 34.833996 47.812263 5.241350
v 31.680408 123.057205 6.655079
v 31.680408 47.812263 6.655079
v 28.779594 123.057205 8.533628
v 28.779594 47.812263 8.533628
v 26.199528 123.057205 10.832973
v 26.199528 47.812263 10.832973
v 24.000694 123.057205 13.499214
v 24.000694 47.812263 13.499214
v 22.234634 123.057205 16.469858
v 22.234634 47.812263 16.469858
v 20.942734 123.057205 19.675276
v 20.942734 47.812263 19.675276
v 117.709152 123.057205 -16.956530
v -32.780735 123.057205 -16.956530
v 117.709152 273.547089 -16.956530
v -32.780735 273.547089 -16.956530
v 42.464207 123.057205 113.371536
v 42.464207 273.547089 113.371536
vn -0.9971 0.0000 0.0765
vn -0.9971 0.0000 -0.0765
vn -0.9737 0.0000 -0.2279
vn -0.9275 0.0000 -0.3738
vn -0.8596 0.0000 -0.5110
vn -0.7715 0.0000 -0.6362
vn -0.6653 0.0000 -0.7466
vn -0.5436 0.0000 -0.8394
vn -0.4091 0.0000 -0.9125
vn -0.2650 0.0000 -0.9643
vn -0.1147 0.0000 -0.9934
vn 0.0383 0.0000 -0.9993
vn 0.1904 0.0000 -0.9817
vn 0.3380 0.0000 -0.9411
vn 0.4777 0.0000 -0.8785
vn 0.6062 0.0000 -0.7953
vn 0.7205 0.0000 -0.6934
vn 0.8179 0.0000 -0.5753
vn 0.8962 0.0000 -0.4437
vn 0.9534 0.0000 -0.3017
vn 0.9883 0.0000 -0.1526
vn 1.0000 0.0000 0.0000
vn 0.9883 0.0000 0.1526
vn 0.9534 0.0000 0.3017
vn 0.8962 0.0000 0.4437
vn 0.8179 0.0000 0.5753
vn 0.7205 0.0000 0.6934
vn 0.6062 0.0000 0.7953
vn 0.4777 0.0000 0.8785
vn 0.3380 0.0000 0.9411
vn 0.1904 0.0000 0.9817
vn 0.0383 0.0000 0.9993
vn -0.1147 0.0000 0.9934
vn -0.2650 0.0000 0.9643
vn -0.4091 0.0000 0.9125
vn -0.5436 0.0000 0.8394
vn -0.6653 0.0000 0.7466
vn -0.7715 0.0000 0.6362
vn -0.8596 0.0000 0.5110
vn -0.9275 0.0000 0.3738
vn -0.9737 0.0000 0.2279
vn 0.0000 -1.0000 -0.0000
vn 0.0000 0.0000 -1.0000
vn 0.8660 0.0000 0.5000
vn -0.8660 0.0000 0.5000
vn 0.0000 1.0000 -0.0000
usemtl None
s off
f 1//1 2//1 3//1
f 3//1 2//1 4//1
f 3//2 4//2 5//2
f 5//2 4//2 6//2
f 5//3 6//3 7//3
f 7//3 6//3 8//3
f 7//4 8//4 9//4
f 9//4 8//4 10//4
f 9//5 10//5 11//5
f 11//5 10//5 12//5
f 11//6 12//6 13//6
f 13//6 12//6 14//6
f 13//7 14//7 15//7
f 15//7 14//7 16//7
f 15//8 16//8 17//8
f 17//8 16//8 18//8
f 17//9 18//9 19//9
f 19//9 18//9 20//9
f 19//10 20//10 21//10
f 21//10 20//10 22//10
f 21//11 22//11 23//11
f 23//11 22//11 24//11
f 23//12 24//12 25//12
f 25//12 24//12 26//12
f 25//13 26//13 27//13
f 27//13 26//13 28//13
f 27//14 28//14 29//14
f 29//14 28//14 30//14
f 29//15 30//15 31//15
f 31//15 30//15 32//15
f 31//16 32//16 33//16
f 33//16 32//16 34//16
f 33//17 34//17 35//17
f 35//17 34//17 36//17
f 35//18 36//18 37//18
f 37//18 36//18 38//18
f 37//19 38//19 39//19
f 39//19 38//19 40//19
f 39//20 40//20 41//20
f 41//20 40//20 42//20
f 41//21 42//21 43//21
f 43//21 42//21 44//21
f 43//22 44//22 45//22
f 45//22 44//22 46//22
f 45//23 46//23 47//23
f 47//23 46//23 48//23
f 47//24 48//24 49//24
f 49//24 48//24 50//24
f 49//25 50//25 51//25
f 51//25 50//25 52//25
f 51//26 52//26 53//26
f 53//26 52//26 54//26
f 53//27 54//27 55//27
f 55//27 54//27 56//27
f 55//28 56//28 57//28
f 57//28 56//28 58//28
f 57//29 58//29 59//29
f 59//29 58//29 60//29
f 59//30 60//30 61//30
f 61//30 60//30 62//30
f 61//31 62//31 63//31
f 63//31 62//31 64//31
f 63//32 64//32 65//32
f 65//32 64//32 66//32
f 65//33 66//33 67//33
f 67//33 66//33 68//33
f 67//34 68//34 69//34
f 69//34 68//34 70//34
f 69//35 70//35 71//35
f 71//35 70//35 72//35
f 71//36 72//36 73//36
f 73//36 72//36 74//36
f 73//37 74//37 75//37
f 75//37 74//37 76//37
f 75//38 76//38 77//38
f 77//38 76//38 78//38
f 77//39 78//39 79//39
f 79//39 78//39 80//39
f 79//40 80//40 81//40
f 81//40 80//40 82//40
f 81//41 82//41 1//41
f 1//41 82//41 2//41
f 83//2 84//2 85//2
f 85//2 84//2 86//2
f 85//1 86//1 87//1
f 87//1 86//1 88//1
f 87//41 88//41 89//41
f 89//41 88//41 90//41
f 89//40 90//40 91//40
f 91//40 90//40 92//40
f 91//39 92//39 93//39
f 93//39 92//39 94//39
f 93//38 94//38 95//38
f 95//38 94//38 96//38
f 95//37 96//37 97//37
f 97//37 96//37 98//37
f 97//36 98//36 99//36
f 99//36 98//36 100//36
f 99//35 100//35 101//35
f 101//35 100//35 102//35
f 101//34 102//34 103//34
f 103//34 102//34 104//34
f 103//33 104//33 105//33
f 105//33 104//33 106//33
f 105//32 106//32 107//32
f 107//32 106//32 108//32
f 107//31 108//31 109//31
f 109//31 108//31 110//31
f 109//30 110//30 111//30
f 111//30 110//30 112//30
f 111//29 112//29 113//29
f 113//29 112//29 114//29
f 113//28 114//28 115//28
f 115//28 114//28 116//28
f 115//27 116//27 117//27
f 117//27 116//27 118//27
f 117//26 118//26 119//26
f 119//26 118//26 120//26
f 119//25 120//25 121//25
f 121//25 120//25 122//25
f 121//24 122//24 123//24
f 123//24 122//24 124//24
f 123//23 124//23 125//23
f 125//23 124//23 126//23
f 125//22 126//22 127//22
f 127//22 126//22 128//22
f 127//21 128//21 129//21
f 129//21 128//21 130//21
f 129//20 130//20 131//20
f 131//20 130//20 132//20
f 131//19 132//19 133//19
f 133//19 132//19 134//19
f 133//18 134//18 135//18
f 135//18 134//18 136//18
f 135//17 136//17 137//17
f 137//17 136//17 138//17
f 137//16 138//16 139//16
f 139//16 138//16 140//16
f 139//15 140//15 141//15
f 141//15 140//15 142//15
f 141//14 142//14 143//14
f 143//14 142//14 144//14
f 143//13 144//13 145//13
f 145//13 144//13 146//13
f 145//12 146//12 147//12
f 147//12 146//12 148//12
f 147//11 148//11 149//11
f 149//11 148//11 150//11
f 149//10 150//10 151//10
f 151//10 150//10 152//10
f 151//9 152//9 153//9
f 153//9 152//9 154//9
f 153//8 154//8 155//8
f 155//8 154//8 156//8
f 155//7 156//7 157//7
f 157//7 156//7 158//7
f 157//6 158//6 159//6
f 159//6 158//6 160//6
f 159//5 160//5 161//5
f 161//5 160//5 162//5
f 161//4 162//4 163//4
f 163//4 162//4 164//4
f 163//3 164//3 83//3
f 83//3 164//3 84//3
f 4//2 86//2 6//2
f 6//2 86//2 84//2
f 6//3 84//3 8//3
f 8//3 84//3 164//3
f 8//4 164//4 10//4
f 10//4 164//4 162//4
f 10//5 162//5 12//5
f 12//5 162//5 160//5
f 12//6 160//6 14//6
f 14//6 160//6 158//6
f 14//7 158//7 16//7
f 16//7 158//7 156//7
f 16//8 156//8 18//8
f 18//8 156//8 154//8
f 18//9 154//9 20//9
f 20//9 154//9 152//9
f 20//10 152//10 22//10
f 22//10 152//10 150//10
f 22//11 150//11 24//11
f 24//11 150//11 148//11
f 24//12 148//12 26//12
f 26//12 148//12 146//12
f 26//13 146//13 28//13
f 28//13 146//13 144//13
f 28//14 144//14 30//14
f 30//14 144//14 142//14
f 30//15 142//15 32//15
f 32//15 142//15 140//15
f 32//16 140//16 34//16
f 34//16 140//16 138//16
f 34//17 138//17 36//17
f 36//17 138//17 136//17
f 36//18 136//18 38//18
f 38//18 136//18 134//18
f 38//19 134//19 40//19
f 40//19 134//19 132//19
f 40//20 132//20 42//20
f 42//20 132//20 130//20
f 42//21 130//21 44//21
f 44//21 130//21 128//21
f 44//22 128//22 46//22
f 46//22 128//22 126//22
f 46//23 126//23 48//23
f 48//23 126//23 124//23
f 48//24 124//24 50//24
f 50//24 124//24 122//24
f 50//25 122//25 52//25
f 52//25 122//25 120//25
f 52//26 120//26 54//26
f 54//26 120//26 118//26
f 54//27 118//27 56//27
f 56//27 118//27 116//27
f 56//28 116//28 58//28
f 58//28 116//28 114//28
f 58//29 114//29 60//29
f 60//29 114//29 112//29
f 60//30 112//30 62//30
f 62//30 112//30 110//30
f 62//31 110//31 64//31
f 64//31 110//31 108//31
f 64//32 108//32 66//32
f 66//32 108//32 106//32
f 66//33 106//33 68//33
f 68//33 106//33 104//33
f 68//34 104//34 70//34
f 70//34 104//34 102//34
f 70//35 102//35 72//35
f 72//35 102//35 100//35
f 72//36 100//36 74//36
f 74//36 100//36 98//36
f 74//37 98//37 76//37
f 76//37 98//37 96//37
f 76//38 96//38 78//38
f 78//38 96//38 94//38
f 78//39 94//39 80//39
f 80//39 94//39 92//39
f 80//40 92//40 82//40
f 82//40 92//40 90//40
f 82//41 90//41 2//41
f 2//41 90//41 88//41
f 2//1 88//1 4//1
f 4//1 88//1 86//1
f 5//42 43//42 3//42
f 3//42 43//42 45//42
f 3//42 45//42 1//42
f 1//42 45//42 47//42
f 1//42 47//42 81//42
f 81//42 47//42 49//42
f 81//42 49//42 79//42
f 79//42 49//42 51//42
f 79//42 51//42 77//42
f 77//42 51//42 53//42
f 77//42 53//42 75//42
f 75//42 53//42 55//42
f 75//42 55//42 73//42
f 73//42 55//42 57//42
f 73//42 57//42 71//42
f 71//42 57//42 59//42
f 71//42 59//42 69//42
f 69//42 59//42 61//42
f 69//42 61//42 67//42
f 67//42 61//42 63//42
f 67//42 63//42 65//42
f 43//42 5//42 41//42
f 41//42 5//42 7//42
f 41//42 7//42 39//42
f 39//42 7//42 9//42
f 39//42 9//42 37//42
f 37//42 9//42 11//42
f 37//42 11//42 35//42
f 35//42 11//42 13//42
f 35//42 13//42 33//42
f 33//42 13//42 15//42
f 33//42 15//42 31//42
f 31//42 15//42 17//42
f 31//42 17//42 29//42
f 29//42 17//42 19//42
f 29//42 19//42 27//42
f 27//42 19//42 21//42
f 27//42 21//42 25//42
f 25//42 21//42 23//42
f 165//43 166//43 167//43
f 167//43 166//43 168//43
f 169//44 165//44 170//44
f 170//44 165//44 167//44
f 166//45 169//45 168//45
f 168//45 169//45 170//45
f 168//46 170//46 167//46
f 83//42 85//42 166//42
f 166//42 85//42 87//42
f 166//42 87//42 89//42
f 89//42 91//42 166//42
f 166//42 91//42 93//42
f 166//42 93//42 169//42
f 169//42 93//42 95//42
f 169//42 95//42 97//42
f 97//42 99//42 169//42
f 169//42 99//42 101//42
f 169//42 101//42 103//42
f 103//42 105//42 169//42
f 169//42 105//42 107//42
f 169//42 107//42 109//42
f 109//42 111//42 169//42
f 169//42 111//42 113//42
f 169//42 113//42 115//42
f 115//42 117//42 169//42
f 169//42 117//42 119//42
f 169//42 119//42 165//42
f 165//42 119//42 121//42
f 165//42 121//42 123//42
f 123//42 125//42 165//42
f 165//42 125//42 127//42
f 165//42 127//42 129//42
f 129//42 131//42 165//42
f 165//42 131//42 133//42
f 165//42 133//42 135//42
f 135//42 137//42 165//42
f 165//42 137//42 139//42
f 165//42 139//42 141//42
f 141//42 143//42 165//42
f 165//42 143//42 145//42
f 165//42 145//42 147//42
f 165//42 147//42 166//42
f 166//42 147//42 149//42
f 166//42 149//42 151//42
f 151//42 153//42 166//42
f 166//42 153//42 155//42
f 166//42 155//42 157//42
f 157//42 159//42 166//42
f 166//42 159//42 161//42
f 166//42 161//42 163//42
f 163//42 83//42 166//42
o ARtag_ARgates_0000_Layer-1.004
v -27.184662 270.619080 -19.641396
v 112.171013 270.109741 -18.192291
v -26.250015 125.132065 -20.040306
v 113.105667 124.622643 -18.591209
vt 0.000000 0.000000
vt 1.000000 0.000000
vt 1.000000 1.000000
vt 0.000000 1.000000
vn 0.0104 0.0028 -0.9999
usemtl ARgates_0000_Layer-1.001
s off
f 171/1/47 172/2/47 174/3/47 173/4/47
o ARtag.001_ARgates_0000_Layer-1.005
v 118.318565 270.619080 -12.036148
v 47.441486 270.109741 107.957779
v 118.197182 125.132065 -11.027206
v 47.320103 124.622643 108.966728
vt 0.000000 0.000000
vt 1.000000 0.000000
vt 1.000000 1.000000
vt 0.000000 1.000000
vn 0.8610 0.0028 0.5086
usemtl ARgates_0000_Layer-1.002
s off
f 175/5/48 176/6/48 178/7/48 177/8/48
o ARtag.002_ARgates_0000_Layer-1.006
v 32.486835 271.192444 110.729492
v -36.420380 270.939880 -10.407181
v 35.174343 125.755768 107.821793
v -33.732883 125.503120 -13.314886
vt 0.000000 0.000000
vt 1.000000 0.000000
vt 1.000000 1.000000
vt 0.000000 1.000000
vn -0.8689 -0.0259 0.4943
usemtl ARgates_0000_Layer-1.003
s off
f 179/9/49 180/10/49 182/11/49 181/12/49
